# xmcd
#
# Track frame offsets: 
#        150
#        15377
#        30262
#        46882
#        60592
#        74932
#        90250
#        104612
#        119527
#        134157
#        148015
#        162590
#        175792
#        190232
#        202815
#        216312
#        229807
#        243395
#        255875
#        269295
#        282360
#        295570
#
# Disc length: 4116 seconds
#
# Revision: 5
# Processed by: cddbd v1.5.2PL0 Copyright (c) Steve Scherf et al.
# Submitted via: ExactAudioCopyFreeDBPlugin 1.0
#
DISCID=45101216
DTITLE=Charley Patton - Complete Recordings, 1929-1934
DYEAR=2002
DGENRE=Blues
TTITLE0=Dry Well Blues
TTITLE1=Moon Going Down
TTITLE2=Delta Big Four - We All Gonna Face the Rising Sun
TTITLE3=Delta Big Four - Moaner, Let's Go Down in the Valley
TTITLE4=Delta Big Four - Jesus Got His Arms Around Me
TTITLE5=Delta Big Four - God Won't Forsake His Own
TTITLE6=Delta Big Four - I'll Be Here
TTITLE7=Delta Big Four - Where Was Eve Sleeping?
TTITLE8=Delta Big Four - I Know My Time Ain't Long
TTITLE9=Delta Big Four - Watch and Pray
TTITLE10=High Sheriff Blues
TTITLE11=Stone Pony Blues
TTITLE12=Jersey Bull Blues
TTITLE13=Hang It on the Wall
TTITLE14=34 Blues
TTITLE15=Love My Stuff
TTITLE16=Poor Me
TTITLE17=Revenue Man Blues
TTITLE18=Charley Patton and Bertha Lee - Troubled 'Bout My Mother
TTITLE19=Charley Patton and Bertha Lee - Oh Death
TTITLE20=Charley Patton and Bertha Lee - Yellow Bee
TTITLE21=Charley Patton and Bertha Lee - Mind Reader Blues
EXTD=JSP Records 2002\n YEAR: 2002
EXTT0=
EXTT1=
EXTT2=
EXTT3=
EXTT4=
EXTT5=
EXTT6=
EXTT7=
EXTT8=
EXTT9=
EXTT10=
EXTT11=
EXTT12=
EXTT13=
EXTT14=
EXTT15=
EXTT16=
EXTT17=
EXTT18=
EXTT19=
EXTT20=
EXTT21=
PLAYORDER=
